HIERARCHY
ROOT Hips
{
	OFFSET 0.000000 0.000000 0.000000
	CHANNELS 6 Xposition Yposition Zposition Xrotation Yrotation Zrotation
	JOINT LeftUpLeg_virtual
	{
		OFFSET 0.000000 0.000000 0.000000
		CHANNELS 3 Xrotation Yrotation Zrotation
		JOINT LeftUpLeg
		{
			OFFSET 15.427100 -6.655098 0.678600
			CHANNELS 3 Xrotation Yrotation Zrotation
			JOINT LeftLeg
			{
				OFFSET 4.081073 -39.591068 13.024000
				CHANNELS 3 Xrotation Yrotation Zrotation
				JOINT LeftFoot
				{
					OFFSET -4.081074 -37.707932 -15.979700
					CHANNELS 3 Xrotation Yrotation Zrotation
					JOINT LeftToeBase
					{
						OFFSET 5.346399 -15.068900 20.645000
						CHANNELS 3 Xrotation Yrotation Zrotation
						JOINT LeftToe_End
						{
							OFFSET 2.754700 0.931300 11.300900
							CHANNELS 3 Xrotation Yrotation Zrotation
							End Site
							{
								OFFSET 0 0 0
							}
						}
					}
				}
			}
		}
	}
	JOINT RightUpLeg_virtual
	{
		OFFSET 0.000000 0.000000 0.000000
		CHANNELS 3 Xrotation Yrotation Zrotation
		JOINT RightUpLeg
		{
			OFFSET -15.569500 -6.655098 0.678600
			CHANNELS 3 Xrotation Yrotation Zrotation
			JOINT RightLeg
			{
				OFFSET -4.081825 -39.591045 13.023800
				CHANNELS 3 Xrotation Yrotation Zrotation
				JOINT RightFoot
				{
					OFFSET 4.081824 -37.707954 -15.979600
					CHANNELS 3 Xrotation Yrotation Zrotation
					JOINT RightToeBase
					{
						OFFSET -5.346400 -15.068900 20.645000
						CHANNELS 3 Xrotation Yrotation Zrotation
						JOINT RightToe_End
						{
							OFFSET -2.754700 0.931300 11.300900
							CHANNELS 3 Xrotation Yrotation Zrotation
							End Site
							{
								OFFSET 0 0 0
							}
						}
					}
				}
			}
		}
	}
	JOINT Spine_virtual
	{
		OFFSET 0.000000 0.000000 0.000000
		CHANNELS 3 Xrotation Yrotation Zrotation
		JOINT Spine
		{
			OFFSET -0.279200 12.230698 -2.892100
			CHANNELS 3 Xrotation Yrotation Zrotation
			JOINT Spine1
			{
				OFFSET -0.232667 10.192268 -1.242267
				CHANNELS 3 Xrotation Yrotation Zrotation
				JOINT Spine1_split
				{
					OFFSET -0.232667 10.192268 -1.242267
					CHANNELS 3 Xrotation Yrotation Zrotation
					JOINT Spine2
					{
						OFFSET -0.232667 10.192268 -1.242267
						CHANNELS 3 Xrotation Yrotation Zrotation
						JOINT Neck_virtual
						{
							OFFSET 0.000000 0.000000 0.000000
							CHANNELS 3 Xrotation Yrotation Zrotation
							JOINT Neck
							{
								OFFSET -0.418800 17.814194 8.416900
								CHANNELS 3 Xrotation Yrotation Zrotation
								JOINT Head
								{
									OFFSET 0.000000 7.031097 3.806800
									CHANNELS 3 Xrotation Yrotation Zrotation
									JOINT HeadTop_End
									{
										OFFSET 0.000000 24.646606 12.978600
										CHANNELS 3 Xrotation Yrotation Zrotation
										End Site
										{
											OFFSET 0 0 0
										}
									}
								}
							}
						}
						JOINT LeftShoulder_virtual
						{
							OFFSET 0.000000 0.000000 0.000000
							CHANNELS 3 Xrotation Yrotation Zrotation
							JOINT LeftShoulder
							{
								OFFSET 8.476499 7.247704 -3.868750
								CHANNELS 3 Xrotation Yrotation Zrotation
								JOINT LeftShoulder_split
								{
									OFFSET 8.476499 7.247704 -3.868750
									CHANNELS 3 Xrotation Yrotation Zrotation
									JOINT LeftArm
									{
										OFFSET 9.308998 -2.777710 0.208600
										CHANNELS 3 Xrotation Yrotation Zrotation
										JOINT LeftForeArm
										{
											OFFSET 29.972298 0.000000 0.000000
											CHANNELS 3 Xrotation Yrotation Zrotation
											JOINT LeftHand
											{
												OFFSET 26.026505 0.000000 0.000000
												CHANNELS 3 Xrotation Yrotation Zrotation
												End Site
												{
													OFFSET 0 0 0
												}
											}
										}
									}
								}
							}
						}
						JOINT RightShoulder_virtual
						{
							OFFSET 0.000000 0.000000 0.000000
							CHANNELS 3 Xrotation Yrotation Zrotation
							JOINT RightShoulder
							{
								OFFSET -7.570500 7.247704 -3.868750
								CHANNELS 3 Xrotation Yrotation Zrotation
								JOINT RightShoulder_split
								{
									OFFSET -7.570500 7.247704 -3.868750
									CHANNELS 3 Xrotation Yrotation Zrotation
									JOINT RightArm
									{
										OFFSET -9.308998 -2.777710 0.208500
										CHANNELS 3 Xrotation Yrotation Zrotation
										JOINT RightForeArm
										{
											OFFSET -29.972300 0.000000 0.000000
											CHANNELS 3 Xrotation Yrotation Zrotation
											JOINT RightHand
											{
												OFFSET -26.026505 0.000000 0.000000
												CHANNELS 3 Xrotation Yrotation Zrotation
												End Site
												{
													OFFSET 0 0 0
												}
											}
										}
									}
								}
							}
						}
					}
				}
			}
		}
	}
}
MOTION
Frames: 6
Frame Time: 0.03333333
3.501630 82.432037 2.077221 0.000000 0.000000 0.000000 5.219228 -28.797222 -0.062621 -51.322438 6.949631 17.038954 34.987846 -23.811020 1.501853 -6.169853 -4.342599 -11.516288 -6.144068 0.053913 4.173390 0.000000 0.000000 0.000000 1.817818 -23.797690 -0.293043 -15.499081 -17.945333 -40.037473 10.218202 -9.930805 -0.745888 4.516384 -6.173566 23.365029 -23.349377 -5.281072 4.315162 0.000000 0.000000 0.000000 2.272033 -32.607835 -0.938858 21.228376 -1.505586 -5.073048 6.284650 -1.890754 1.233934 4.417318 -17.181459 6.015947 0.000000 0.000000 0.000000 6.935925 -0.640329 -1.011027 17.743882 10.539253 13.774085 -35.680693 27.400103 21.036651 0.000000 0.000000 0.000000 8.682465 -1.271579 0.133662 -1.037343 -12.071224 -18.672293 -1.405837 -1.879309 -1.542072 -37.413485 31.815069 -17.401193 3.603268 -16.577060 -4.885041 0.000000 0.000000 0.000000 6.514129 -1.054005 0.049749 -0.398068 -12.729622 22.321658 -14.429391 -6.193068 0.177948 19.577211 15.068704 33.722225 5.017776 51.584843 8.667256 0.000000 0.000000 0.000000 
1.197961 83.392815 2.762993 0.000000 0.000000 0.000000 5.587382 -24.623674 0.131693 -51.533648 11.359947 16.323751 35.136375 -25.178574 0.315353 -0.551086 -6.298115 -11.844029 -6.562793 -0.315947 4.853062 0.000000 0.000000 0.000000 2.280541 -21.053020 0.516581 -12.478324 -15.442749 -36.718124 16.108974 -9.475976 -0.585920 2.812857 -6.255339 21.713719 -20.623362 -5.164409 5.088797 0.000000 0.000000 0.000000 2.468394 -29.017188 0.354673 19.033174 -1.243244 -5.372554 6.436350 -1.306800 1.533083 4.968485 -11.858400 5.957510 0.000000 0.000000 0.000000 5.779555 -0.332517 -0.716908 20.294640 9.968999 12.363385 -33.403921 25.630787 20.939208 0.000000 0.000000 0.000000 7.990044 -0.665050 0.198764 -0.569989 -9.732517 -18.912183 -0.293636 -0.946872 -0.373666 -40.897288 30.999189 -16.012004 2.118171 -23.470798 -5.601377 0.000000 0.000000 0.000000 6.169155 -0.574294 0.193766 -1.351766 -9.964057 22.797192 -14.988543 -2.640279 0.628326 17.610610 16.137013 35.049645 5.933511 50.933315 8.424793 0.000000 0.000000 0.000000 
-1.574942 85.033287 3.675194 0.000000 0.000000 0.000000 5.583045 -15.254126 1.387469 -48.823603 16.414797 12.381294 30.758265 -25.868390 -3.486000 9.108648 -9.468902 -11.192619 -6.789137 -1.064047 6.696065 0.000000 0.000000 0.000000 2.767015 -13.663887 2.204475 -6.497217 -11.304613 -31.911986 23.768876 -7.606179 -0.555346 2.546379 -4.605248 21.903336 -21.941974 -4.493118 4.558583 0.000000 0.000000 0.000000 3.147987 -20.610417 2.480059 15.679411 -0.301823 -5.608892 5.492407 0.203290 2.403918 5.466108 -7.906815 4.628873 0.000000 0.000000 0.000000 3.707362 1.025372 0.351444 24.461155 9.005006 10.415262 -26.207011 21.526598 18.458810 0.000000 0.000000 0.000000 6.207030 1.075750 1.074999 0.029504 -6.308146 -18.146634 0.670162 0.027105 0.446276 -39.930010 26.961982 -16.099067 3.876403 -33.425009 -3.503841 0.000000 0.000000 0.000000 4.808869 1.054260 1.120235 -1.999273 -7.141941 24.106640 -14.187569 -0.963313 -0.262001 15.335673 16.571169 34.692686 10.268179 48.822179 5.571339 0.000000 0.000000 0.000000 
-4.275713 86.705276 4.668701 0.000000 0.000000 0.000000 4.960979 -3.107647 3.347050 -43.391936 19.998586 5.910302 23.789853 -25.071567 -8.249045 20.056676 -11.624115 -8.469570 -7.522616 -1.968518 8.734231 0.000000 0.000000 0.000000 2.936172 -2.991093 4.295106 1.393862 -6.699798 -26.489772 29.748527 -5.134056 -0.936058 2.630343 -1.693223 22.189347 -25.260702 -3.249217 3.110018 0.000000 0.000000 0.000000 3.357831 -9.183934 4.817079 11.853860 1.124012 -5.578758 3.603602 2.374216 3.570888 4.754226 -4.503146 2.673792 0.000000 0.000000 0.000000 1.084788 3.159987 1.865227 28.878733 8.229442 8.260748 -16.537543 15.562514 15.141126 0.000000 0.000000 0.000000 3.625891 3.543179 2.329341 0.491317 -2.439395 -16.640038 1.745933 1.286572 1.203200 -36.481188 19.104490 -16.948611 8.556243 -39.648316 1.682261 0.000000 0.000000 0.000000 2.655024 3.472095 2.451125 -2.353853 -4.794598 25.561744 -12.167334 -1.431479 -1.574983 13.926551 15.664110 32.282838 16.419674 44.685280 1.442711 0.000000 0.000000 0.000000 
-6.505865 87.954895 5.236160 0.000000 0.000000 0.000000 3.525819 9.528782 5.943390 -36.321976 20.582399 -1.944262 16.801799 -23.507392 -11.964634 28.787796 -11.351412 -4.706238 -9.031304 -2.771189 9.991984 0.000000 0.000000 0.000000 1.879121 8.647177 6.298748 9.270744 -3.384435 -21.230200 32.816207 -3.527730 -0.809972 3.743739 1.806780 20.565281 -25.267168 -1.377090 1.379467 0.000000 0.000000 0.000000 2.790988 3.679880 7.002710 8.166805 2.848229 -5.031825 1.071095 4.779454 4.654825 1.469983 -2.585663 0.331513 0.000000 0.000000 0.000000 -1.287098 5.615699 3.315467 32.087679 7.762055 5.680329 -7.441606 8.247536 12.271523 0.000000 0.000000 0.000000 0.764306 6.224932 3.510625 0.728340 1.587223 -14.483312 2.840202 2.936507 1.300589 -33.153257 7.508308 -16.550266 12.248614 -38.665308 7.103736 0.000000 0.000000 0.000000 0.125458 6.163527 3.768033 -2.431527 -2.752942 26.717484 -9.374171 -2.340150 -2.395839 13.742876 13.449432 28.739903 22.485862 38.927512 -2.410969 0.000000 0.000000 0.000000 
-8.135792 88.274017 5.537216 0.000000 0.000000 0.000000 0.840631 20.117202 8.920482 -29.017960 17.600096 -9.508749 11.777247 -21.935542 -13.413367 31.639875 -8.301449 -0.224909 -9.949931 -3.188398 9.760596 0.000000 0.000000 0.000000 -0.652827 18.559837 8.443108 14.865944 -2.519287 -16.680029 32.764103 -3.299158 0.724297 6.863917 5.336364 17.562045 -20.775818 0.702420 -0.557882 0.000000 0.000000 0.000000 1.409527 15.388555 8.835074 5.266997 4.577332 -4.047605 -1.707262 7.056065 5.295362 -1.146379 -2.956434 -1.310673 0.000000 0.000000 0.000000 -2.951350 8.047433 4.257902 32.989185 8.022134 2.491899 -1.110236 0.688543 10.110236 0.000000 0.000000 0.000000 -1.785658 8.703799 4.220091 0.647318 5.392127 -11.934069 2.902383 5.014727 0.457315 -32.414360 -3.682318 -13.699300 10.636619 -30.686237 9.466191 0.000000 0.000000 0.000000 -2.205820 8.595008 4.589526 -2.269881 -0.870146 26.931530 -6.751368 -1.863246 -2.769906 14.691740 10.684152 24.968446 27.112234 32.491387 -4.934601 0.000000 0.000000 0.000000 
